<svg xmlns="http://www.w3.org/2000/svg" viewBox="0 0 164 194.48"><defs><style>.cls-1{fill:#e5e025;}.cls-2{fill:#efa02e;}.cls-3{fill:#cc842e;}</style></defs><title>Asset 1</title><g id="Layer_2" data-name="Layer 2"><g id="Layer_1-2" data-name="Layer 1"><polygon class="cls-1" points="164 89 164 126 129 157 106 164 56 164 20 145 0 113 9 70 59 9 75 0 119 0 148 39.5 164 89"/><polygon class="cls-2" points="88 71.81 111 81.94 117 66.81 102.5 50.81 88 71.81"/><circle cx="76.3" cy="45.84" r="8.96"/><path d="M129.18,47.2c-.88,3.72-4,5.13-7,3.16s-4.72-6.59-3.83-10.3,4-5.13,7-3.16S130.06,43.48,129.18,47.2Z" transform="translate(-0.25 -0.25)"/><polygon class="cls-3" points="99 163.94 99 168.81 93.67 166.38 89.67 168.81 92.33 172.15 97.33 173.48 96 179.48 89.67 183.81 92.67 189.81 99 186.48 101 176.88 111.67 184.15 117 189.81 121.67 186.81 120 181.15 114.67 178.81 123.5 180.15 134.66 183.48 139.66 180.81 138 176.88 123.5 174.48 112 174.15 106.33 171.48 106 163.94 99 163.94"/><polygon class="cls-3" points="61.33 163.94 61.33 172.15 64.33 176.88 82 183.81 85.26 186.48 85.26 189.81 80 191.48 68.67 184.48 61.33 182.48 61.33 187.15 63 191.48 61.33 194.48 55.66 194.48 54.33 189.81 54.33 182.81 51.33 183.15 45.33 185.81 39.33 189.81 35.33 191.81 32 189.81 35 184.81 51.66 179.21 53.66 173.15 56 163.94 61.33 163.94"/></g></g></svg>