<svg xmlns="http://www.w3.org/2000/svg" viewBox="0 0 311.33 311.33"><defs><style>.cls-1{fill:#2761e2;}.cls-2{fill:#e5e025;}.cls-3{fill:#efa02e;}.cls-4{fill:#cc842e;}</style></defs><title>ChirpUp</title><g id="Layer_2" data-name="Layer 2"><g id="Layer_1-2" data-name="Layer 1"><rect class="cls-1" width="311.33" height="311.33"/><polygon class="cls-2" points="237.67 147.42 237.67 184.42 202.67 215.42 179.67 222.42 129.67 222.42 93.67 203.42 73.67 171.42 82.67 128.42 132.67 67.42 148.67 58.42 192.67 58.42 221.67 97.92 237.67 147.42"/><polygon class="cls-3" points="161.67 130.24 184.67 140.36 190.67 125.24 176.17 109.24 161.67 130.24"/><circle cx="149.96" cy="104.27" r="8.96"/><path d="M202.6,105.38c-.88,3.72-4,5.13-7,3.16s-4.72-6.59-3.83-10.3,4-5.13,7-3.16S203.48,101.66,202.6,105.38Z"/><polygon class="cls-4" points="172.67 222.36 172.67 227.24 167.33 224.8 163.33 227.24 166 230.57 171 231.91 169.67 237.91 163.33 242.24 166.33 248.24 172.67 244.91 174.67 235.3 185.33 242.57 190.67 248.24 195.33 245.24 193.67 239.57 188.33 237.24 197.17 238.57 208.33 241.91 213.33 239.24 211.67 235.3 197.17 232.91 185.67 232.57 180 229.91 179.67 222.36 172.67 222.36"/><polygon class="cls-4" points="135 222.36 135 230.57 138 235.3 155.67 242.24 158.93 244.91 158.93 248.24 153.67 249.91 142.33 242.91 135 240.91 135 245.57 136.67 249.91 135 252.91 129.33 252.91 128 248.24 128 241.24 125 241.57 119 244.24 113 248.24 109 250.24 105.67 248.24 108.67 243.24 125.33 237.63 127.33 231.57 129.67 222.36 135 222.36"/></g></g></svg>